<svg xmlns="http://www.w3.org/2000/svg" width="106" height="106" viewBox="0 0 106 106">
    <g data-name="recipe node">
        <g data-name="Ellipse 336" style="stroke:#f28c1c;fill:#fdf3e7">
            <circle cx="53" cy="53" r="53" style="stroke:none"/>
            <circle cx="53" cy="53" r="52.5" style="fill:none"/>
        </g>
        <g data-name="Subtraction 4" style="fill:#fff">
            <path d="M884.513-2455.5h-99.026a52.366 52.366 0 0 1-2.987-17.5c0-7.088 1.388-13.963 4.126-20.435a52.33 52.33 0 0 1 11.25-16.688 52.33 52.33 0 0 1 16.689-11.252c6.472-2.737 13.348-4.125 20.435-4.125 7.088 0 13.963 1.388 20.435 4.125a52.329 52.329 0 0 1 16.688 11.252 52.328 52.328 0 0 1 11.252 16.688c2.737 6.472 4.125 13.347 4.125 20.435a52.359 52.359 0 0 1-2.987 17.5z" style="stroke:none" transform="translate(-782 2526)"/>
            <path d="M884.158-2456a51.87 51.87 0 0 0 2.842-17c0-7.02-1.374-13.83-4.086-20.24a51.833 51.833 0 0 0-11.144-16.53 51.835 51.835 0 0 0-16.53-11.144c-6.41-2.711-13.22-4.086-20.24-4.086-7.02 0-13.83 1.375-20.24 4.086a51.832 51.832 0 0 0-16.53 11.144 51.83 51.83 0 0 0-11.144 16.53c-2.711 6.41-4.086 13.22-4.086 20.24 0 5.83.956 11.545 2.842 17h98.316m.707 1zm0 0h-99.73a52.853 52.853 0 0 1-3.135-18c0-7.155 1.401-14.096 4.165-20.63a52.827 52.827 0 0 1 11.358-16.847 52.825 52.825 0 0 1 16.847-11.358c6.534-2.764 13.475-4.165 20.63-4.165 7.155 0 14.096 1.401 20.63 4.165a52.826 52.826 0 0 1 16.847 11.358 52.827 52.827 0 0 1 11.358 16.847c2.764 6.534 4.165 13.475 4.165 20.63a52.85 52.85 0 0 1-3.134 17.999z" style="fill:#f28c1c;stroke:none" transform="translate(-782 2526)"/>
        </g>
        <text data-name="Pad Thai" transform="translate(30 54)" style="font-size:12px;font-family:Roboto-Medium,Roboto;font-weight:500;fill:#1f1f1f"><tspan x="0" y="0">Pad Thai</tspan></text>
        <text transform="translate(37 91)" style="font-size:11px;font-family:Roboto-Regular,Roboto;fill:#1f1f1f"><tspan x="0" y="0">Recipe</tspan></text>
        <path data-name="Path 25145" d="M159.281 22.177a.629.629 0 0 0-.374 1.081 2.125 2.125 0 0 1 .757 1.76 5.4 5.4 0 0 1-.58 1.583 5.733 5.733 0 0 0-.678 2.507 3.642 3.642 0 0 0 .383 1.543.629.629 0 1 0 1.121-.57 3.446 3.446 0 0 1-.246-.983 4.755 4.755 0 0 1 .56-1.966 5.015 5.015 0 0 0 .7-2.114 3.633 3.633 0 0 0-1.131-2.654.629.629 0 0 0-.511-.187zm-3.4 3.116a.629.629 0 0 0-.383 1.131.836.836 0 0 1 .393.786 2.86 2.86 0 0 1-.266.747 3.451 3.451 0 0 0-.364 1.475 2.151 2.151 0 0 0 .433 1.268.629.629 0 1 0 1.022-.727 5.211 5.211 0 0 1-.2-.551 2.27 2.27 0 0 1 .256-.953 2.971 2.971 0 0 0 .373-1.239 2.278 2.278 0 0 0-.865-1.789.63.63 0 0 0-.4-.147zm6.921 0a.629.629 0 0 0-.383 1.131.836.836 0 0 1 .393.786 2.846 2.846 0 0 1-.266.747 3.451 3.451 0 0 0-.364 1.475 2.152 2.152 0 0 0 .433 1.268.629.629 0 1 0 1.022-.727 5.246 5.246 0 0 1-.2-.551 2.269 2.269 0 0 1 .256-.953 2.971 2.971 0 0 0 .374-1.239 2.278 2.278 0 0 0-.865-1.789.63.63 0 0 0-.4-.147zm-13.892 8.219a.629.629 0 0 0-.57.7 10.623 10.623 0 0 0 6.292 8.287v2.969a.629.629 0 0 0 .629.629h8.808a.629.629 0 0 0 .629-.629V42.5a10.623 10.623 0 0 0 6.292-8.287.63.63 0 0 0-.629-.7H148.91zm.846 1.258h19.819a10.278 10.278 0 0 1-19.819 0zm6.134 8.219a12.375 12.375 0 0 0 7.55 0v1.848h-7.55z" transform="translate(-106.664 -16.237)" style="fill:#f28c1c;stroke-width:.7px;stroke:#f28c1c"/>
    </g>
</svg>
