<svg data-name="Group 641" xmlns="http://www.w3.org/2000/svg" width="20.123" height="28.88" viewBox="0 0 20.123 28.88">
    <g data-name="Path 25223" style="fill:#64dd17">
        <path d="M19.806 14.006 17.538 4.24V.911a.688.688 0 0 0-.071-.3.786.786 0 0 0-.192-.248.917.917 0 0 0-.285-.167 1.009 1.009 0 0 0-.349-.061L2.616.138a.9.9 0 0 0-.308.054.833.833 0 0 0-.254.147.715.715 0 0 0-.174.217.615.615 0 0 0-.068.266l-.064 2.631a.3.3 0 0 0 .021.117.322.322 0 0 0 .062.1.385.385 0 0 0 .1.075.45.45 0 0 0 .121.046l.022.127L.516 14.079.2 26.783A.623.623 0 0 0 .237 27a.652.652 0 0 0 .1.19.692.692 0 0 0 .163.15.713.713 0 0 0 .205.094l3.5 1.237h.063l.032.029.038.008H4.448l.025.006h.136l14.072-1.257a.946.946 0 0 0 .3-.077.859.859 0 0 0 .243-.161.748.748 0 0 0 .163-.225.667.667 0 0 0 .063-.269v-.214l.008-.323.007-.318q0-.158.007-.314l.007-.31v-.045a.082.082 0 0 0 0-.016.023.023 0 0 0 0-.005q.053-2.257.1-4.081t.087-3.207q.04-1.385.074-2.335t.06-1.462 0-.022v-.066zm-3.077-9.688.39 1.69-13.84.153L2.9 3.979h13.827zM3.3 11.061l.446 2.59-2.115.049zM3 .845 16.634.838a.1.1 0 0 1 .035.006.094.094 0 0 1 .031.018.081.081 0 0 1 .02.025.071.071 0 0 1 .007.031v2.345l-13.879.005L2.9.925a.072.072 0 0 1 .01-.031.085.085 0 0 1 .021-.026.1.1 0 0 1 .03-.017A.106.106 0 0 1 3 .845zM2.448 6.82l.03.015.032.013.033.01.035.008.522 3.041-1.481 2.342zM1.031 26.783l.3-12.353 2.491-.059L3.7 27.7zm17.6-.265-.021.224-14.086 1.24.01-1.264 14.117-1.086-.005.219-.005.22-.005.222-.005.225zm.039-1.622L4.54 25.983l.1-11.964L3.4 6.873l13.883-.153 1.706 7.393q-.027.519-.06 1.454t-.073 2.282q-.04 1.349-.086 3.109t-.1 3.937z" style="stroke:none"/>
        <path d="M4.524 28.868a.327.327 0 0 1-.078-.009l-.02-.004h-.002l-.002-.001H4.42l-.002-.001h-.004a.644.644 0 0 1-.208-.035l-.01-.004a.67.67 0 0 1-.056-.02L.653 27.56a.868.868 0 0 1-.44-.294.779.779 0 0 1-.161-.483l.314-12.704v-.008l.002-.007L1.919 3.922l-.006-.035a.563.563 0 0 1-.23-.176.436.436 0 0 1-.084-.258l.064-2.63a.73.73 0 0 1 .08-.317.85.85 0 0 1 .208-.258.99.99 0 0 1 .302-.175c.113-.041.237-.064.366-.064L16.646.002c.144 0 .281.025.406.07.125.047.237.113.332.195.094.082.17.18.224.289a.801.801 0 0 1 .082.353l-.002 2.708v.609l2.256 9.714.01.039a.444.444 0 0 1 .01.122c-.018.342-.038.83-.06 1.462-.023.632-.047 1.41-.074 2.33-.027.923-.056 1.99-.087 3.2a1962.615 1962.615 0 0 0-.097 4.074.126.126 0 0 1 .003.022.195.195 0 0 1-.003.06.457.457 0 0 1-.004.015v.004l-.001.001-.006.243-.005.244-.006.248-.006.25-.006.274-.005.214a.789.789 0 0 1-.075.318.882.882 0 0 1-.193.265 1.012 1.012 0 0 1-.286.19c-.108.048-.228.08-.355.091L4.625 28.863a1.055 1.055 0 0 1-.101.005zm-.097-.286h.01l.01.001a.386.386 0 0 1 .073.014.225.225 0 0 0 .01.002.765.765 0 0 0 .07-.003l14.07-1.257a.779.779 0 0 0 .248-.063.705.705 0 0 0 .2-.132.613.613 0 0 0 .133-.184.546.546 0 0 0 .052-.22l.005-.215.007-.275.006-.251.005-.25.006-.246.006-.244v-.01a.28.28 0 0 1 .007-.034.153.153 0 0 1-.003-.016l-.002-.01v-.01a1990.296 1990.296 0 0 1 .188-7.286c.027-.923.052-1.702.074-2.337a92.826 92.826 0 0 1 .061-1.49.208.208 0 0 0-.002-.023l-.003-.01-2.267-9.766-.003-.013v-.013l.001-.621.003-2.708a.575.575 0 0 0-.059-.254.657.657 0 0 0-.16-.207.767.767 0 0 0-.24-.14.843.843 0 0 0-.29-.05L2.612.266a.73.73 0 0 0-.25.044.676.676 0 0 0-.206.12.58.58 0 0 0-.141.176.499.499 0 0 0-.056.216l-.063 2.63a.186.186 0 0 0 .051.134.24.24 0 0 0 .061.048c.024.013.05.023.08.03l.092.021.014.083.023.127.003.018-.003.019L.666 14.086.354 26.783a.51.51 0 0 0 .108.326.545.545 0 0 0 .292.196l.006.002.005.002 3.495 1.237a5.536 5.536 0 0 0 .043.015h.003l.002.002.014.004a.292.292 0 0 0 .088.016.173.173 0 0 1 .017 0zm-.056-.452.001-.146.01-1.264.002-.124.14-.011 14.115-1.086.167-.013-.003.148-.021.886v.004l-.001.005-.021.223-.011.113-.127.01-14.086 1.24-.165.015zm.314-1.289-.008.993 13.791-1.214.01-.107.005-.187a282.654 282.654 0 0 0 .009-.366l.004-.181L4.685 26.84zM3.846 27.9l-.207-.072-2.665-.92-.097-.033.003-.092.296-12.353.003-.128.147-.004 2.49-.06.153-.003-.001.134-.12 13.333-.002.198zm-2.661-1.208 2.362.814.119-13-2.192.052-.29 12.134zm3.203-.563v-.144l.1-11.954-1.233-7.136-.026-.15.175-.002 13.879-.153.123-.001.024.104 1.706 7.393.004.016v.016a96.74 96.74 0 0 0-.06 1.447c-.023.622-.047 1.383-.074 2.28a1969.973 1969.973 0 0 0-.186 7.052v.045l-.031.035-.041.047-.067.006-14.13 1.087-.163.012zM3.576 7.002l1.21 6.995.002.01v.01l-.095 11.82 13.828-1.063a1906.26 1906.26 0 0 1 .184-6.951c.027-.887.051-1.64.073-2.256.022-.617.042-1.098.06-1.442L17.16 6.852l-13.585.15zM1.373 13.84l.127-.2L3.169 11l.214-.339.065.378.446 2.59.026.15-.173.004-2.115.05-.259.007zm1.843-2.378-1.328 2.103 1.683-.04-.355-2.063zm-1.466.849-.28-.077.83-5.429.031-.208.2.113a.242.242 0 0 0 .082.03l.097.018.015.086.524 3.041.008.044-.025.04L1.75 12.31zm.763-4.935-.64 4.205 1.072-1.696-.432-2.51zm.638-1.082-.02-.11L2.755 4l-.026-.151h.177l13.825-.005h.148v.46l.388 1.677.036.156-.183.002-13.84.153-.128.002zm-.075-2.186.332 1.922 13.529-.15-.354-1.535-.003-.012v-.229l-13.504.004zm-.23-.71h-.15l.003-.13.055-2.343c0-.028.008-.056.02-.081a.22.22 0 0 1 .054-.067A.275.275 0 0 1 3 .715L16.636.71a.268.268 0 0 1 .168.06.21.21 0 0 1 .051.067.184.184 0 0 1 .02.08l.002 2.346v.131h-.151l-13.88.005zM3.05.974 3 3.139l13.578-.005-.002-2.166L3.05.974z" style="fill:#64dd17;stroke:none"/>
    </g>
    <g data-name="Path 25224" style="fill:#64dd17">
        <path d="M10.192 7.807 8.625 9.518a3.652 3.652 0 0 0 .086-.45 3.889 3.889 0 0 0 .03-.4c0-.125 0-.239-.007-.338s-.016-.185-.025-.252l2.034-2.219a.35.35 0 0 0 .076-.127.319.319 0 0 0 .014-.138.326.326 0 0 0-.046-.132.367.367 0 0 0-.1-.109.427.427 0 0 0-.145-.065.467.467 0 0 0-.157-.011.457.457 0 0 0-.151.042.4.4 0 0 0-.126.093L8.587 7.061a3.624 3.624 0 0 0 .087-.451A3.877 3.877 0 0 0 8.7 6.2c0-.125 0-.239-.007-.339s-.016-.185-.025-.252l2.075-2.26a.348.348 0 0 0 .076-.127.317.317 0 0 0 .014-.137.324.324 0 0 0-.046-.131.366.366 0 0 0-.1-.109.427.427 0 0 0-.144-.064.469.469 0 0 0-.157-.011.458.458 0 0 0-.151.042.4.4 0 0 0-.125.092l-2.115 2.3c-.062.022-.147.054-.248.1s-.219.1-.348.161-.267.142-.409.23a4.76 4.76 0 0 0-.433.3c.052-.107.1-.22.146-.34a3.437 3.437 0 0 0 .118-.376 2.94 2.94 0 0 0 .072-.407 2.594 2.594 0 0 0 .01-.431 2.771 2.771 0 0 0-.159-.758 3.534 3.534 0 0 0-.306-.639 4.288 4.288 0 0 0-.347-.491 4.463 4.463 0 0 0-.281-.313L5.786.48a.336.336 0 0 0-.033-.139.347.347 0 0 0-.086-.113.382.382 0 0 0-.13-.074.449.449 0 0 0-.165-.022.464.464 0 0 0-.159.032.424.424 0 0 0-.129.08A.364.364 0 0 0 5 .359a.319.319 0 0 0-.03.14l.022 1.783a4.07 4.07 0 0 0-.24.339 4.3 4.3 0 0 0-.289.531 3.549 3.549 0 0 0-.232.678 2.771 2.771 0 0 0-.068.782 2.594 2.594 0 0 0 .046.354 2.874 2.874 0 0 0 .088.334 3.246 3.246 0 0 0 .121.311c.045.1.093.195.143.285a5.016 5.016 0 0 0-.733-.389c-.109-.048-.209-.087-.3-.118s-.159-.055-.214-.072l-2.172-2.2a.4.4 0 0 0-.129-.087.452.452 0 0 0-.15-.04.466.466 0 0 0-.156.018.431.431 0 0 0-.142.071.378.378 0 0 0-.1.114.331.331 0 0 0-.043.133.316.316 0 0 0 .017.137.339.339 0 0 0 .079.123l2.13 2.164c-.008.068-.015.153-.019.253s0 .214 0 .339a3.858 3.858 0 0 0 .041.4 3.59 3.59 0 0 0 .1.447l-1.558-1.58a.4.4 0 0 0-.129-.087.454.454 0 0 0-.152-.035.468.468 0 0 0-.156.018.435.435 0 0 0-.142.071.379.379 0 0 0-.1.114.332.332 0 0 0-.043.134.317.317 0 0 0 .017.137.341.341 0 0 0 .079.124L2.674 8.21c-.008.068-.015.153-.019.253s0 .214 0 .339a3.876 3.876 0 0 0 .04.4 3.6 3.6 0 0 0 .1.446L1.186 8.012a.4.4 0 0 0-.129-.087A.452.452 0 0 0 .9 7.89a.466.466 0 0 0-.157.018.433.433 0 0 0-.142.072.38.38 0 0 0-.1.114.333.333 0 0 0-.043.134.319.319 0 0 0 .017.137.342.342 0 0 0 .079.124L2.7 10.673a3.8 3.8 0 0 0-.023.412 3.911 3.911 0 0 0 .042.581 3.429 3.429 0 0 0 .17.675 2.956 2.956 0 0 0 .361.693 3.2 3.2 0 0 0 .521.569 4.188 4.188 0 0 0 .586.421 5.142 5.142 0 0 0 .559.289c.172.076.324.133.44.172l.019 1.426a.326.326 0 0 0 .033.139.36.36 0 0 0 .088.113.414.414 0 0 0 .129.076.458.458 0 0 0 .158.028H5.8a.463.463 0 0 0 .161-.032.426.426 0 0 0 .131-.081.372.372 0 0 0 .087-.118.33.33 0 0 0 .031-.143l-.02-1.425c.115-.045.265-.108.435-.192a5.278 5.278 0 0 0 .553-.314 4.308 4.308 0 0 0 .577-.448 3.292 3.292 0 0 0 .507-.593 3.021 3.021 0 0 0 .344-.709 3.47 3.47 0 0 0 .152-.682 3.925 3.925 0 0 0 .026-.583 3.8 3.8 0 0 0-.034-.411l2.086-2.279a.351.351 0 0 0 .076-.128.32.32 0 0 0 .014-.138.328.328 0 0 0-.046-.132.37.37 0 0 0-.1-.11.426.426 0 0 0-.144-.066.465.465 0 0 0-.157-.011.455.455 0 0 0-.151.042.4.4 0 0 0-.126.093zm-5.356-.626a2.162 2.162 0 0 1 .2.352 2.442 2.442 0 0 1 .131.359 2.86 2.86 0 0 1 .074.35c.017.113.027.221.032.322v.17c-.047-.02-.1-.042-.146-.067s-.1-.051-.156-.079-.107-.058-.162-.09-.11-.066-.165-.1l-.032-.022-.032-.023-.032-.022-.032-.021a2.733 2.733 0 0 1-.486-.43 2.123 2.123 0 0 1-.13-.18 2.2 2.2 0 0 1-.226-.4 2.564 2.564 0 0 1-.136-.412 3.018 3.018 0 0 1-.067-.392 3.374 3.374 0 0 1-.018-.344c.105.045.222.1.342.164a3.905 3.905 0 0 1 .37.224 3.083 3.083 0 0 1 .361.287 2.356 2.356 0 0 1 .314.355zM4.112 8.95l.032.022.032.023.032.022.032.021a2.75 2.75 0 0 1 .487.43 2.133 2.133 0 0 1 .139.175 2.188 2.188 0 0 1 .213.376 2.5 2.5 0 0 1 .134.383 2.93 2.93 0 0 1 .071.369c.015.119.023.231.026.334v.1c-.049-.021-.1-.044-.153-.07S5.053 11.08 5 11.05s-.112-.061-.169-.1-.114-.07-.172-.108l-.023-.016-.023-.016-.026-.01-.023-.015a3.063 3.063 0 0 1-.341-.278c-.054-.051-.107-.1-.156-.161a2.135 2.135 0 0 1-.141-.178 2.2 2.2 0 0 1-.226-.407 2.579 2.579 0 0 1-.137-.414 3.038 3.038 0 0 1-.067-.394 3.39 3.39 0 0 1-.018-.345c.047.02.1.043.147.067l.157.08c.057.029.109.059.164.092l.167.1zm-.159 3.692a2.213 2.213 0 0 1-.227-.407 2.59 2.59 0 0 1-.137-.415 3.047 3.047 0 0 1-.067-.395 3.405 3.405 0 0 1-.018-.346 3.272 3.272 0 0 1 .316.153c.055.03.113.062.17.1s.115.07.173.108l.024.016.024.017.024.017.024.016a3.063 3.063 0 0 1 .341.278c.054.051.106.1.156.161a2.141 2.141 0 0 1 .141.178 2.207 2.207 0 0 1 .223.4 2.564 2.564 0 0 1 .136.4 3.023 3.023 0 0 1 .069.387 3.429 3.429 0 0 1 .021.344v.032a4.225 4.225 0 0 1-.344-.166 3.914 3.914 0 0 1-.372-.226A3.1 3.1 0 0 1 4.268 13a2.376 2.376 0 0 1-.315-.358zm1.671-6.588a3.64 3.64 0 0 1-.209-.289 3.222 3.222 0 0 1-.2-.353 2.581 2.581 0 0 1-.157-.405A1.983 1.983 0 0 1 5 4.11a2.571 2.571 0 0 1 .106-.42 3.194 3.194 0 0 1 .156-.374c.056-.115.115-.219.172-.311.067.084.138.181.208.288a3.214 3.214 0 0 1 .2.352A2.575 2.575 0 0 1 6 4.05a1.981 1.981 0 0 1 .055.9 2.576 2.576 0 0 1-.106.421 3.2 3.2 0 0 1-.156.375 3.615 3.615 0 0 1-.169.308zm.9 1.088a2.429 2.429 0 0 1 .3-.37 3.168 3.168 0 0 1 .353-.3 4 4 0 0 1 .364-.24 4.57 4.57 0 0 1 .338-.179 3.378 3.378 0 0 1-.009.344 3.048 3.048 0 0 1-.057.395 2.611 2.611 0 0 1-.125.418 2.253 2.253 0 0 1-.215.415 2.185 2.185 0 0 1-.136.182c-.048.058-.1.114-.151.167s-.107.1-.162.152-.112.095-.17.138l-.025.018-.023.018-.025.019-.025.018c-.056.04-.113.078-.169.115s-.112.07-.166.1-.108.062-.16.089-.1.053-.15.076a3.378 3.378 0 0 1 .01-.346 3.06 3.06 0 0 1 .058-.4 2.618 2.618 0 0 1 .121-.414 2.254 2.254 0 0 1 .216-.414zm-.377 4.043a3.4 3.4 0 0 1 .01-.347 3.075 3.075 0 0 1 .058-.4 2.634 2.634 0 0 1 .126-.42 2.266 2.266 0 0 1 .216-.416 2.192 2.192 0 0 1 .136-.183c.048-.058.1-.114.152-.168S6.949 9.15 7 9.1s.113-.095.17-.139l.03-.015.023-.018.023-.018.024-.017a4.212 4.212 0 0 1 .336-.215c.055-.029.109-.062.161-.09s.1-.053.151-.076a3.384 3.384 0 0 1-.009.346 3.059 3.059 0 0 1-.057.4 2.628 2.628 0 0 1-.126.42 2.263 2.263 0 0 1-.216.416 2.171 2.171 0 0 1-.135.183c-.048.058-.1.114-.151.167s-.107.1-.162.153-.112.095-.17.139l-.025.018-.025.019-.025.019-.025.019c-.056.04-.113.078-.169.115s-.112.07-.166.1-.108.062-.16.09-.1.053-.15.076zm1.4 1.375a2.437 2.437 0 0 1-.306.373 3.183 3.183 0 0 1-.355.306 4.007 4.007 0 0 1-.366.242c-.12.07-.235.131-.34.181a3.434 3.434 0 0 1 .01-.348 3.091 3.091 0 0 1 .058-.4 2.641 2.641 0 0 1 .126-.421 2.27 2.27 0 0 1 .216-.417 2.192 2.192 0 0 1 .136-.183c.048-.058.1-.114.151-.167s.107-.1.162-.153.112-.095.17-.139l.026-.018.026-.019.026-.019.026-.019c.056-.04.113-.078.169-.115s.112-.07.166-.1.108-.062.16-.089.1-.053.15-.076a3.4 3.4 0 0 1-.01.347 3.073 3.073 0 0 1-.057.4 2.637 2.637 0 0 1-.126.421 2.273 2.273 0 0 1-.221.413z" style="stroke:none" transform="translate(6.079 8.218)"/>
        <path d="M5.796 16.401h-.013a.632.632 0 0 1-.217-.038.56.56 0 0 1-.176-.103.488.488 0 0 1-.12-.154.449.449 0 0 1-.044-.19l-.019-1.339a5.615 5.615 0 0 1-.482-.2 5.092 5.092 0 0 1-.554-.303 4.167 4.167 0 0 1-.557-.42 3.067 3.067 0 0 1-.855-1.235 3.516 3.516 0 0 1-.179-.67 4.003 4.003 0 0 1-.035-1.03L.444 8.577a.492.492 0 0 1-.107-.166.432.432 0 0 1-.005-.288.463.463 0 0 1 .1-.171.548.548 0 0 1 .16-.124.604.604 0 0 1 .29-.07.632.632 0 0 1 .332.096.53.53 0 0 1 .087.071L2.543 9.19a3.953 3.953 0 0 1-.025-.934L.471 6.172a.49.49 0 0 1-.107-.165.43.43 0 0 1-.005-.287.461.461 0 0 1 .1-.171.545.545 0 0 1 .16-.124.61.61 0 0 1 .29-.07.633.633 0 0 1 .33.096.53.53 0 0 1 .087.071l1.192 1.21a3.94 3.94 0 0 1-.025-.937L.403 3.673a.488.488 0 0 1-.107-.165.43.43 0 0 1 .036-.375.494.494 0 0 1 .136-.152.565.565 0 0 1 .173-.09.632.632 0 0 1 .53.064c.031.02.06.044.086.07l2.147 2.178a4.493 4.493 0 0 1 .339.122 5.582 5.582 0 0 1 .484.22 3.276 3.276 0 0 1-.149-.464 2.818 2.818 0 0 1-.068-.46c-.016-.27.01-.53.061-.774.052-.243.13-.471.22-.677a4.335 4.335 0 0 1 .547-.927L4.817.503C4.816.434 4.83.37 4.858.311a.5.5 0 0 1 .118-.158.58.58 0 0 1 .177-.109.632.632 0 0 1 .23-.044h.015c.075 0 .145.013.21.037a.538.538 0 0 1 .169.1.447.447 0 0 1 .158.338l.023 1.72a4.5 4.5 0 0 1 .647.85c.112.193.215.408.295.641a2.871 2.871 0 0 1 .154 1.035 2.851 2.851 0 0 1-.086.584 3.504 3.504 0 0 1-.089.299A5.428 5.428 0 0 1 7.903 5.1l2.09-2.274a.54.54 0 0 1 .196-.138.616.616 0 0 1 .339-.041.624.624 0 0 1 .253.098.529.529 0 0 1 .14.146.45.45 0 0 1 .065.279.435.435 0 0 1-.062.183.5.5 0 0 1-.061.081L8.828 5.65a3.68 3.68 0 0 1 .027.402 4.044 4.044 0 0 1-.027.537l1.16-1.264a.54.54 0 0 1 .196-.138.617.617 0 0 1 .34-.042.626.626 0 0 1 .253.1.529.529 0 0 1 .14.145.45.45 0 0 1 .066.28.436.436 0 0 1-.062.184.504.504 0 0 1-.062.082L8.865 8.11a3.666 3.666 0 0 1 .027.4 4.03 4.03 0 0 1-.027.535l1.21-1.32a.54.54 0 0 1 .196-.139.615.615 0 0 1 .34-.042.624.624 0 0 1 .255.101.529.529 0 0 1 .14.147.453.453 0 0 1 .065.28.435.435 0 0 1-.062.184.505.505 0 0 1-.061.082l-2.046 2.235a3.991 3.991 0 0 1-.009 1.032c-.03.216-.08.446-.161.68a3.133 3.133 0 0 1-.345.7c-.141.214-.305.404-.48.573-.174.17-.36.317-.546.445a5.206 5.206 0 0 1-.547.328c-.174.09-.337.164-.477.22l.02 1.337a.448.448 0 0 1-.091.279.534.534 0 0 1-.156.142.597.597 0 0 1-.312.091h-.002zm-4.92-8.38a.293.293 0 0 0-.172.057.26.26 0 0 0-.064.072.212.212 0 0 0-.017.175.21.21 0 0 0 .05.078l2.143 2.182.041.043-.006.056a3.696 3.696 0 0 0 .018.964c.03.206.082.426.163.65a2.834 2.834 0 0 0 .856 1.217c.187.16.384.295.575.408a5.07 5.07 0 0 0 .95.438l.094.032.002.09.02 1.425c0 .032.007.062.02.089a.226.226 0 0 0 .056.071c.023.02.05.037.081.048.031.012.065.018.101.018h.009a.297.297 0 0 0 .144-.042.267.267 0 0 0 .071-.066.222.222 0 0 0 .043-.13l-.02-1.424-.002-.09.093-.036a5.188 5.188 0 0 0 .94-.48c.189-.122.382-.266.565-.434.182-.168.353-.36.496-.577.147-.223.253-.453.33-.68a3.35 3.35 0 0 0 .146-.657 3.806 3.806 0 0 0-.007-.964l-.007-.056.04-.044 2.086-2.28a.235.235 0 0 0 .048-.079.203.203 0 0 0-.021-.174.226.226 0 0 0-.066-.068.273.273 0 0 0-.162-.05.297.297 0 0 0-.162.05.25.25 0 0 0-.042.036l-1.567 1.71-.264-.109a3.543 3.543 0 0 0 .112-.827 3.777 3.777 0 0 0-.03-.573l-.009-.055.04-.044 2.035-2.219a.233.233 0 0 0 .047-.08.202.202 0 0 0-.02-.173.224.224 0 0 0-.065-.068.267.267 0 0 0-.118-.046.298.298 0 0 0-.207.046.25.25 0 0 0-.042.037L8.704 7.143l-.263-.11a3.521 3.521 0 0 0 .113-.829 3.763 3.763 0 0 0-.031-.574l-.008-.056.04-.044 2.075-2.259a.234.234 0 0 0 .048-.079.202.202 0 0 0-.05-.21.244.244 0 0 0-.072-.052.268.268 0 0 0-.125-.028.303.303 0 0 0-.114.023.268.268 0 0 0-.091.063L8.111 5.29l-.025.028-.037.013a5.362 5.362 0 0 0-.954.46c-.144.09-.293.19-.439.306l-.238-.147a3.86 3.86 0 0 0 .162-.386c.046-.128.082-.254.11-.379a2.456 2.456 0 0 0 .062-.73 2.657 2.657 0 0 0-.15-.72 3.385 3.385 0 0 0-.291-.612 4.132 4.132 0 0 0-.616-.79l-.036-.036V2.25L5.635.484a.219.219 0 0 0-.147-.205.27.27 0 0 0-.095-.017h-.016a.308.308 0 0 0-.104.02.273.273 0 0 0-.083.052.23.23 0 0 0-.056.073.201.201 0 0 0-.019.088l.022 1.783v.042l-.027.035a4.175 4.175 0 0 0-.522.861 3.378 3.378 0 0 0-.217.647 2.663 2.663 0 0 0-.062.74 2.468 2.468 0 0 0 .115.612 3.07 3.07 0 0 0 .269.62l-.225.167a4.87 4.87 0 0 0-.75-.394 5.177 5.177 0 0 0-.455-.168l-.038-.012-.025-.026L1.029 3.2A.245.245 0 0 0 .94 3.14a.285.285 0 0 0-.199-.005.276.276 0 0 0-.116.075.232.232 0 0 0-.046.08.206.206 0 0 0 .022.172.226.226 0 0 0 .03.037l2.13 2.163.042.042-.006.055a3.438 3.438 0 0 0-.017.576 3.712 3.712 0 0 0 .135.822l-.26.122-1.558-1.584a.247.247 0 0 0-.088-.057.286.286 0 0 0-.2-.006.281.281 0 0 0-.116.076.229.229 0 0 0-.046.08.207.207 0 0 0 .023.173.228.228 0 0 0 .029.036l2.089 2.124.041.042-.006.056a3.443 3.443 0 0 0-.017.574 3.74 3.74 0 0 0 .134.822l-.26.122L1.07 8.1a.248.248 0 0 0-.087-.058.28.28 0 0 0-.108-.02zm4.625 5.875-.222-.096a4.708 4.708 0 0 1-.362-.174 4.052 4.052 0 0 1-.388-.237c-.13-.09-.257-.19-.376-.302a2.34 2.34 0 0 1-.565-.798 2.698 2.698 0 0 1-.144-.432 3.158 3.158 0 0 1-.09-.777v-.216l.219.095a4.216 4.216 0 0 1 .484.245 4.359 4.359 0 0 1 .29.186l.004.003.003.002a3.565 3.565 0 0 1 .38.312 2.542 2.542 0 0 1 .292.337c.095.134.171.274.233.415.062.141.108.284.143.423a3.156 3.156 0 0 1 .095.763v.032l.004.219zm-1.837-2.592a3.094 3.094 0 0 0 .11.623c.033.108.073.218.124.326a2.07 2.07 0 0 0 .426.601c.088.088.181.168.278.241.096.073.195.14.294.2.099.06.197.113.291.16a3.124 3.124 0 0 0-.11-.623 2.364 2.364 0 0 0-.124-.327 2.06 2.06 0 0 0-.605-.761 3.268 3.268 0 0 0-.21-.157l-.013-.01-.014-.01-.01-.006a1.042 1.042 0 0 0-.028-.02 4.114 4.114 0 0 0-.41-.237zm2.366 2.58-.004-.217a3.19 3.19 0 0 1 .072-.782c.03-.144.074-.292.132-.439a2.399 2.399 0 0 1 .68-.948c.062-.054.128-.109.197-.162l.004-.003.004-.003a.516.516 0 0 0 .038-.027l.013-.01.012-.01a2.047 2.047 0 0 1 .036-.026 4.552 4.552 0 0 1 .668-.396l.217-.104.005.216a3.525 3.525 0 0 1-.071.78 2.748 2.748 0 0 1-.133.437 2.402 2.402 0 0 1-.544.824 3.315 3.315 0 0 1-.368.32c-.127.095-.257.18-.382.254a4.818 4.818 0 0 1-.358.19l-.218.106zm1.271-2.347a3.35 3.35 0 0 0-.333.296 2.33 2.33 0 0 0-.25.31c-.07.106-.129.215-.177.325a2.4 2.4 0 0 0-.115.333 2.768 2.768 0 0 0-.096.629c.094-.052.19-.11.288-.174.097-.064.195-.135.29-.213.094-.077.186-.162.271-.253a2.129 2.129 0 0 0 .41-.62 2.4 2.4 0 0 0 .116-.333 2.754 2.754 0 0 0 .095-.627 4.489 4.489 0 0 0-.418.267l-.01.008-.01.007a4.66 4.66 0 0 1-.061.045zm-1.834-.12-.222-.095a4.314 4.314 0 0 1-.691-.376l-.011-.008a1.663 1.663 0 0 1-.023-.015l-.011-.008a1.133 1.133 0 0 0-.034-.023l-.003-.002-.004-.002a3.566 3.566 0 0 1-.38-.313 2.535 2.535 0 0 1-.291-.336 2.328 2.328 0 0 1-.237-.423 2.69 2.69 0 0 1-.143-.431 3.143 3.143 0 0 1-.09-.774l-.001-.216.219.094a4.07 4.07 0 0 1 .464.235 4.593 4.593 0 0 1 .237.148l.014.01.017.012a1.936 1.936 0 0 0 .052.035l.004.003.005.003a3.555 3.555 0 0 1 .372.307 2.524 2.524 0 0 1 .285.33c.073.103.138.213.194.328.056.116.103.237.142.365.04.128.07.261.092.4.022.14.035.285.04.436v.098l.004.219zm-.81-.74a.783.783 0 0 1 .04.028l.014.01.01.006a.822.822 0 0 0 .018.013l.009.006a3.95 3.95 0 0 0 .406.236 3.06 3.06 0 0 0-.045-.358 2.586 2.586 0 0 0-.084-.33 2.254 2.254 0 0 0-.286-.573 1.989 1.989 0 0 0-.255-.294 2.676 2.676 0 0 0-.396-.318l-.02-.014-.011-.008a1.56 1.56 0 0 0-.14-.09 4.337 4.337 0 0 0-.281-.157 3.087 3.087 0 0 0 .11.62c.032.11.073.219.124.326a2.06 2.06 0 0 0 .604.759c.057.047.118.093.182.139zm1.341.729-.005-.216a3.528 3.528 0 0 1 .072-.78c.031-.143.074-.29.133-.436a2.394 2.394 0 0 1 .681-.948c.062-.055.128-.109.198-.163l.003-.002.004-.003a.578.578 0 0 0 .034-.025l.012-.008.011-.01a6.218 6.218 0 0 1 .034-.024 4.447 4.447 0 0 1 .671-.398l.216-.104.005.216a3.509 3.509 0 0 1-.07.777c-.031.143-.074.29-.132.436a2.391 2.391 0 0 1-.68.947 3.679 3.679 0 0 1-.197.162l-.003.003-.004.003a.491.491 0 0 0-.036.026l-.013.01-.012.009a1.82 1.82 0 0 1-.037.027 4.551 4.551 0 0 1-.668.396l-.217.105zM7.27 9.064a3.367 3.367 0 0 0-.334.296 2.32 2.32 0 0 0-.252.31 2.12 2.12 0 0 0-.176.325c-.047.11-.085.221-.115.33a2.747 2.747 0 0 0-.095.627 4.287 4.287 0 0 0 .418-.267l.01-.008.01-.008.015-.01a1.964 1.964 0 0 1 .044-.033 3.373 3.373 0 0 0 .333-.295 2.31 2.31 0 0 0 .25-.31c.07-.105.128-.214.176-.324.048-.11.086-.221.115-.33a2.735 2.735 0 0 0 .095-.626 4.477 4.477 0 0 0-.4.254l-.01.007a.88.88 0 0 0-.01.007l-.009.007-.01.007-.013.01a1.24 1.24 0 0 1-.042.031zm-1.837-.116-.222-.096a4.003 4.003 0 0 1-.46-.232 4.47 4.47 0 0 1-.221-.137l-.015-.01a5.418 5.418 0 0 1-.014-.01l-.017-.013a1.696 1.696 0 0 0-.051-.034l-.004-.002-.004-.003a3.561 3.561 0 0 1-.372-.308 2.506 2.506 0 0 1-.285-.329 2.32 2.32 0 0 1-.236-.421 2.674 2.674 0 0 1-.143-.43 3.124 3.124 0 0 1-.09-.77v-.215l.218.094c.112.048.234.105.36.173.127.068.258.145.386.234.13.089.256.189.375.3a2.271 2.271 0 0 1 .65 1.026c.039.12.07.247.093.38.023.13.038.268.046.41l.002.175.004.218zm-.82-.746a.969.969 0 0 1 .06.04l.019.013.012.01.013.008.012.009a4.173 4.173 0 0 0 .393.228 3.08 3.08 0 0 0-.045-.359 2.593 2.593 0 0 0-.084-.33 2.023 2.023 0 0 0-.525-.852 2.738 2.738 0 0 0-.278-.239 3.41 3.41 0 0 0-.293-.197 4.064 4.064 0 0 0-.29-.16 3.07 3.07 0 0 0 .11.62c.033.108.073.217.124.324a2.052 2.052 0 0 0 .594.748c.056.046.115.092.178.137zm1.352.734-.004-.215a3.163 3.163 0 0 1 .072-.776c.03-.143.073-.29.132-.436.059-.146.133-.292.226-.432s.201-.269.317-.386c.116-.117.24-.222.367-.317.127-.094.255-.178.38-.251a4.81 4.81 0 0 1 .356-.19l.216-.103.005.215a3.494 3.494 0 0 1-.07.774 2.72 2.72 0 0 1-.133.436 2.378 2.378 0 0 1-.678.943 3.65 3.65 0 0 1-.197.162l-.003.003-.004.002a.557.557 0 0 0-.037.027l-.012.01-.012.008-.012.009a2.155 2.155 0 0 1-.023.017 4.507 4.507 0 0 1-.669.396l-.217.104zm.685-1.729c-.07.105-.127.214-.175.323a2.38 2.38 0 0 0-.115.33 2.739 2.739 0 0 0-.095.624 4.362 4.362 0 0 0 .418-.266l.01-.008.01-.007.014-.012a2.833 2.833 0 0 1 .044-.031 3.364 3.364 0 0 0 .333-.295 2.328 2.328 0 0 0 .25-.31c.07-.104.128-.213.176-.322.047-.11.085-.22.115-.33a2.733 2.733 0 0 0 .094-.624c-.093.051-.19.108-.286.172a3.48 3.48 0 0 0-.288.211 2.82 2.82 0 0 0-.27.252c-.086.09-.165.189-.235.293zm-1.01-.902-.14-.174a3.876 3.876 0 0 1-.22-.305 3.325 3.325 0 0 1-.207-.369 2.69 2.69 0 0 1-.162-.422 2.167 2.167 0 0 1-.081-.465c-.01-.16 0-.318.024-.47.024-.152.063-.3.11-.438.047-.14.102-.27.161-.39.06-.12.121-.23.18-.327l.117-.19.14.175c.07.089.145.19.218.303.073.112.144.235.208.368.063.132.12.273.162.421.042.148.072.304.082.464.01.16 0 .319-.024.471-.025.153-.063.3-.11.44a3.31 3.31 0 0 1-.161.39c-.06.121-.121.231-.181.328l-.117.19zm-.186-3.037c-.046.087-.091.18-.133.28-.041.099-.079.203-.11.312-.03.109-.054.222-.069.338a1.902 1.902 0 0 0 .153 1.032c.044.105.094.205.147.298.053.094.11.182.166.262.046-.086.09-.18.132-.28a2.8 2.8 0 0 0 .11-.313c.03-.109.055-.222.07-.338a1.908 1.908 0 0 0-.154-1.032 2.803 2.803 0 0 0-.147-.297 3.314 3.314 0 0 0-.165-.262z" style="fill:#64dd17;stroke:none" transform="translate(6.079 8.218)"/>
    </g>
</svg>
